# xmcd CD database file
#
# Track frame offsets:
#	150
#	24020
#	45930
#	72621
#	97367
#	133058
#	156393
#	182583
#	207822
#	231249
#	250712
#	273794
#	292137
#
# Disc length: 4258 seconds
#
# Revision: 0
# Processed by: cddbd v1.5.1PL0 Copyright (c) Steve Scherf et al.
# Submitted via: CDex 1.51
#
DISCID=bb10a00d
DTITLE=Orange - Hot Message
DYEAR=2004
DGENRE=Jazz
TTITLE0=Tornado
TTITLE1=Hot Message
TTITLE2=Bubble Job
TTITLE3=Tippi
TTITLE4=Sail
TTITLE5=Sunsounds
TTITLE6=Show Me
TTITLE7=The Top of the Valley
TTITLE8=Sweet Rememberance
TTITLE9=Urban Energy
TTITLE10=Neuer Zwiefacher
TTITLE11=Sommerwind
TTITLE12=Kinderüberraschung
EXTD=YEAR: 2004
EXTT0=
EXTT1=
EXTT2=
EXTT3=
EXTT4=
EXTT5=
EXTT6=
EXTT7=
EXTT8=
EXTT9=
EXTT10=
EXTT11=
EXTT12=
PLAYORDER=
